<?xml version="1.0" encoding="UTF-8" standalone="no"?>
<!-- Created with Inkscape (http://www.inkscape.org/) -->

<svg
   xmlns:dc="http://purl.org/dc/elements/1.1/"
   xmlns:cc="http://creativecommons.org/ns#"
   xmlns:rdf="http://www.w3.org/1999/02/22-rdf-syntax-ns#"
   xmlns:svg="http://www.w3.org/2000/svg"
   xmlns="http://www.w3.org/2000/svg"
   xmlns:xlink="http://www.w3.org/1999/xlink"
   xmlns:sodipodi="http://sodipodi.sourceforge.net/DTD/sodipodi-0.dtd"
   xmlns:inkscape="http://www.inkscape.org/namespaces/inkscape"
   version="1.1"
   width="104"
   height="102.843"
   id="svg2"
   xml:space="preserve"
   inkscape:version="0.48.2 r9819"
   sodipodi:docname="git-commit-notifier.svg"
   inkscape:export-filename="/Users/bodo/Desktop/git-commit-notifier-256.png"
   inkscape:export-xdpi="230.39999"
   inkscape:export-ydpi="230.39999"><sodipodi:namedview
     pagecolor="#ffffff"
     bordercolor="#666666"
     borderopacity="1"
     objecttolerance="10"
     gridtolerance="10"
     guidetolerance="10"
     inkscape:pageopacity="0"
     inkscape:pageshadow="2"
     inkscape:window-width="1519"
     inkscape:window-height="913"
     id="namedview15"
     showgrid="false"
     fit-margin-top="2"
     fit-margin-left="2"
     fit-margin-right="2"
     fit-margin-bottom="2"
     inkscape:zoom="6.96"
     inkscape:cx="48.698733"
     inkscape:cy="86.61026"
     inkscape:window-x="109"
     inkscape:window-y="69"
     inkscape:window-maximized="0"
     inkscape:current-layer="g12" /><metadata
     id="metadata8"><rdf:RDF><cc:Work
         rdf:about=""><dc:format>image/svg+xml</dc:format><dc:type
           rdf:resource="http://purl.org/dc/dcmitype/StillImage" /><dc:title></dc:title></cc:Work></rdf:RDF></metadata><defs
     id="defs6"><linearGradient
       inkscape:collect="always"
       id="linearGradient3913"><stop
         style="stop-color:#ffffff;stop-opacity:1;"
         offset="0"
         id="stop3915" /><stop
         style="stop-color:#ffffff;stop-opacity:0;"
         offset="1"
         id="stop3917" /></linearGradient><clipPath
       id="clipPath18"><path
         d="m 0,0 2183.73,0 0,912 L 0,912 0,0 z"
         inkscape:connector-curvature="0"
         id="path20" /></clipPath><linearGradient
       inkscape:collect="always"
       xlink:href="#linearGradient3913"
       id="linearGradient3919"
       x1="42.12907"
       y1="9.28506"
       x2="51.441269"
       y2="9.28506"
       gradientUnits="userSpaceOnUse"
       gradientTransform="matrix(9.0054878,0,0,-9.8021568,559.58148,839.13777)" /></defs><g
     id="g12"
     transform="matrix(0.125,0,0,-0.125,-76.4375,103.51175)"><path
       style="fill:#f03c2e;fill-opacity:1;fill-rule:nonzero;stroke:none"
       d="M 58.96875 2 C 58.022958 2.0166417 57.082833 2.3222705 56.25 2.90625 L 48.21875 8.5 L 55.34375 18.65625 C 57.47075 18.330427 59.711975 19.181674 61.03125 21.0625 C 62.357088 22.954755 62.392138 25.357045 61.34375 27.25 L 68.21875 37.03125 C 70.35465 36.690426 72.5805 37.544241 73.90625 39.4375 C 75.760588 42.079744 75.142912 45.739443 72.5 47.59375 C 69.85665 49.448576 66.199175 48.800043 64.34375 46.15625 C 62.94975 44.167693 62.96585 41.62049 64.1875 39.6875 L 57.78125 30.5625 L 54.21875 51 C 54.719362 51.367517 55.154225 51.808817 55.53125 52.34375 C 57.384975 54.985631 56.767712 58.643024 54.125 60.5 C 51.482275 62.353236 47.820925 61.704025 45.96875 59.0625 C 44.115325 56.417021 44.763838 52.759628 47.40625 50.90625 C 48.059125 50.449069 48.764688 50.161044 49.5 50 L 53.125 29.375 C 52.4882 28.974254 51.927387 28.437441 51.46875 27.78125 C 50.064238 25.780996 50.072375 23.219241 51.3125 21.28125 L 44.3125 11.28125 L 17.875 29.8125 C 15.654188 31.371408 15.098213 34.435906 16.65625 36.65625 L 43.71875 75.1875 C 45.27555 77.407285 48.340612 77.963354 50.5625 76.40625 L 88.90625 49.46875 C 91.126338 47.910309 91.6824 44.845234 90.125 42.625 L 63.0625 4.09375 C 62.090125 2.7064937 60.54507 1.9722638 58.96875 2 z "
       id="path28"
       transform="matrix(8,0,0,-8,611.5,828.094)" /><path
       d="m 78.4375,35.9375 0,75.40625 100,0 0,-75.40625 c -7.30903,3.306193 -7.53284,3.46051 -11.84375,6.96875 l -25.34375,25.875 -4.84375,-4.875 c -2.048,-2.088 -4.98375,-3.2995 -8.09375,-3.3125 -0.017,0 -0.0455,0 -0.0625,0 -3.098,0 -6.03475,1.192 -8.09375,3.25 L 115.375,68.625 90.40625,44.53125 C 85.737973,40.729024 83.939868,39.114293 78.4375,35.9375 z m 6.96875,11.96875 25.0625,25.65625 -25.0625,25.21875 z m 86.0625,0 0,51.46875 -25.3125,-25.625 z M 128.25,67.5625 l 0.0312,0 c 1.258,0.003 2.39525,0.44475 3.15625,1.21875 l 35.15625,35.59375 -76.875,0 35.375,-35.625 c 0.74,-0.744 1.91625,-1.1875 3.15625,-1.1875 z"
       transform="matrix(8,0,0,-8,0,912.1)"
       id="path3"
       inkscape:connector-curvature="0"
       sodipodi:nodetypes="ccccccccsccccccccccccccccccsc" /><path
       style="fill:#ffffff;fill-opacity:1;stroke:#ffffff;stroke-width:0.25;stroke-opacity:1"
       d="m 90.577235,103.60817 c 0.275168,-0.37813 8.354704,-8.525966 17.954525,-18.106314 19.36239,-19.323115 18.19994,-18.33694 20.86182,-17.698365 1.32536,0.317948 -0.86372,-1.824207 30.45759,29.804678 l 6.62247,6.687501 -38.19836,0 -38.198352,0 0.500307,-0.6875 z"
       id="path3117"
       inkscape:connector-curvature="0"
       transform="matrix(8,0,0,-8,0,912.1)" /><path
       style="fill:#ffffff;fill-opacity:1;stroke:#ffffff;stroke-width:0.25;stroke-opacity:1"
       d="m 85.368858,73.295359 0.0079,-25.37469 2.916035,3 c 1.603819,1.65 7.246205,7.422677 12.538637,12.82817 l 9.6226,9.82817 -12.546519,12.54652 -12.546519,12.546517 0.0079,-25.374687 z"
       id="path3119"
       inkscape:connector-curvature="0"
       transform="matrix(8,0,0,-8,0,912.1)" /><path
       style="fill:#ffffff;fill-opacity:1;stroke:#ffffff;stroke-width:0.25;stroke-opacity:1"
       d="m 158.74048,86.418976 -12.43822,-12.626695 3.39913,-3.560805 c 1.86953,-1.958444 7.50245,-7.723307 12.51762,-12.810807 l 9.11849,-9.25 0.0118,25.4375 c 0.006,13.990625 -0.0293,25.4375 -0.0794,25.4375 -0.0501,0 -5.68834,-5.682013 -12.52936,-12.626693 l -1e-5,0 z"
       id="path3121"
       inkscape:connector-curvature="0"
       transform="matrix(8,0,0,-8,0,912.1)" /><path
       style="fill:#ffffff;fill-opacity:0.94117647;stroke:none"
       d="m 48.255029,8.4536638 c -3.891482,2.7211082 -3.90258,2.6952522 -3.900144,2.7668822 -0.436742,-0.347062 2.488865,3.630214 2.488865,3.654454 0,0.02424 0.994829,1.47035 2.21875,3.21875 l 2.25,3.15625 -0.25,0.5 c -0.338506,0.668011 -0.65845,1.899994 -0.65625,2.59375 0.0057,1.825688 1.026042,3.811287 2.46875,4.84375 l 0.25,0.21875 -1.75,10.03125 c -0.971621,5.531892 -1.7997,10.180135 -1.84375,10.3125 -0.05826,0.175089 -0.244021,0.306888 -0.6875,0.46875 -0.335266,0.122366 -0.769867,0.30853 -0.9375,0.40625 -0.324022,0.188873 -0.260565,0.168579 0.65625,-0.09375 1.531448,-0.438193 3.183711,-0.552609 4.8125,-0.34375 0.494489,0.06342 0.916,0.08401 0.9375,0.0625 0.0215,-0.02151 0.816098,-4.416992 1.75,-9.78125 0.933903,-5.364259 1.69807,-9.75797 1.71875,-9.78125 0.02068,-0.02328 0.04198,-0.02328 0.0625,0 0.235029,0.266659 6.28125,8.92848 6.28125,9 0,0.05358 -0.120384,0.393036 -0.28125,0.75 -0.742413,1.647434 -0.721361,3.230424 0.09375,4.9375 0.732313,1.533674 2.097134,2.623783 3.8125,3.0625 0.997436,0.255132 1.806972,0.257171 2.8125,0 1.957135,-0.500551 3.500626,-1.920564 4.125,-3.84375 0.651486,-2.006693 0.07201,-4.460618 -1.4375,-5.9375 C 72.110897,37.541768 70.775894,37.001 69.1875,37 l -0.96875,0 -3.4375,-4.84375 -3.4375,-4.875 L 61.5625,26.75 c 0.422514,-1.058866 0.47805,-1.310516 0.46875,-2.375 -0.0072,-0.821175 -0.07526,-1.241654 -0.25,-1.75 C 61.036762,20.459174 59.36936,19.060464 57.125,18.6875 56.715153,18.61941 56.132375,18.59142 55.84375,18.625 l -0.5,0.0625 -3.21875,-4.59375 z"
       id="path3939"
       inkscape:connector-curvature="0"
       sodipodi:nodetypes="ccsccccccccscsccsscssscsssccccccsccccc"
       transform="matrix(8,0,0,-8,611.5,828.094)" /></g></svg>